<svg width="50" height="49" viewBox="0 0 50 49" fill="none" xmlns="http://www.w3.org/2000/svg">
<g id="Group 246">
<path id="Union" fill-rule="evenodd" clip-rule="evenodd" d="M24.0473 23.3693C22.6303 22.5512 20.8184 23.0367 20.0003 24.4537L14.6029 33.8023L5.92526 35.4376V30.1201C5.92526 28.4839 4.59885 27.1574 2.96263 27.1574C1.32641 27.1574 0 28.4839 0 30.1201V45.9208C0 47.557 1.32641 48.8834 2.96263 48.8834L16.7882 48.8834C18.4245 48.8834 19.7509 47.557 19.7509 45.9208C19.7509 44.2846 18.4245 42.9581 16.7882 42.9581H5.92526V41.4671L16.6076 39.4541C17.1288 39.3559 17.5922 39.1268 17.9702 38.8072C18.4837 38.5574 18.9307 38.1568 19.2377 37.6251L25.1317 27.4164C25.9498 25.9994 25.4643 24.1874 24.0473 23.3693Z" fill="white"/>
<rect id="Rectangle 1817" x="10.0981" width="37.3548" height="24.6886" rx="5" transform="rotate(18 10.0981 0)" fill="white"/>
<rect id="Rectangle 1818" x="15.8452" y="5.92526" width="22.2197" height="4.93772" rx="2.46886" transform="rotate(18 15.8452 5.92526)" fill="#343434"/>
<rect id="Rectangle 1819" x="50" y="19.7444" width="14.8132" height="4.93772" rx="2.46886" transform="rotate(108 50 19.7444)" fill="white"/>
<rect id="Rectangle 1820" x="41.6018" y="20.2446" width="4.93772" height="8.39412" transform="rotate(18 41.6018 20.2446)" fill="white"/>
</g>
</svg>
